<?xml version="1.0" encoding="utf-8"?>
<!-- Generator: Adobe Illustrator 28.2.0, SVG Export Plug-In . SVG Version: 6.00 Build 0)  -->
<svg version="1.1" id="Layer_1" xmlns="http://www.w3.org/2000/svg" xmlns:xlink="http://www.w3.org/1999/xlink" x="0px" y="0px"
	 viewBox="0 0 50.6 43.5" style="enable-background:new 0 0 50.6 43.5;" xml:space="preserve">
<style type="text/css">
	.st0{fill:#009536;}
	.st1{fill:#00BA3E;}
</style>
<g>
	<path class="st0" d="M47.7,26.4l-13.7,8.1l-13.7,8.1c-3.8,2.3-8.6-0.4-8.7-4.9l0-1.6c0-1.8,1.5-3.3,3.3-3.3h2.4c2.8,0,5-2.2,5-5
		V15.7c0-2.8-2.3-5-5-5h-2.7c-1.8,0-3.3-1.4-3.3-3.2l0-1.5c-0.1-4.4,4.7-7.2,8.5-5.1l13.9,7.8l13.9,7.8
		C51.5,18.6,51.5,24.1,47.7,26.4z"/>
	<path class="st1" d="M8.1,32.9h-3c-2.8,0-5-2.3-5-5V15.7c0-2.8,2.2-5,5-5h2.8c1.8,0,3.3,1.4,3.3,3.2l0.1,7.9l0.1,7.7
		C11.4,31.4,9.9,32.9,8.1,32.9z"/>
</g>
</svg>
